<?xml version="1.0" encoding="UTF-8" standalone="no"?>
<!-- Created with Inkscape (http://www.inkscape.org/) -->

<svg
   width="76.46106mm"
   height="76.65242mm"
   viewBox="0 0 76.46106 76.65242"
   version="1.1"
   id="svg5"
   inkscape:version="1.1.1 (3bf5ae0d25, 2021-09-20)"
   sodipodi:docname="dgpost.svg"
   inkscape:export-filename="C:\Users\krpe\dgpost\docs\source\images\dgpost_logo.png"
   inkscape:export-xdpi="66.440002"
   inkscape:export-ydpi="66.440002"
   xmlns:inkscape="http://www.inkscape.org/namespaces/inkscape"
   xmlns:sodipodi="http://sodipodi.sourceforge.net/DTD/sodipodi-0.dtd"
   xmlns="http://www.w3.org/2000/svg"
   xmlns:svg="http://www.w3.org/2000/svg">
  <sodipodi:namedview
     id="namedview7"
     pagecolor="#ffffff"
     bordercolor="#666666"
     borderopacity="1.0"
     inkscape:pageshadow="2"
     inkscape:pageopacity="0.0"
     inkscape:pagecheckerboard="0"
     inkscape:document-units="mm"
     showgrid="false"
     fit-margin-top="1"
     fit-margin-left="5"
     fit-margin-right="5"
     fit-margin-bottom="1"
     inkscape:zoom="1.3932941"
     inkscape:cx="175.12455"
     inkscape:cy="179.43089"
     inkscape:window-width="1920"
     inkscape:window-height="986"
     inkscape:window-x="-11"
     inkscape:window-y="-11"
     inkscape:window-maximized="1"
     inkscape:current-layer="layer1"
     lock-margins="false" />
  <defs
     id="defs2" />
  <g
     inkscape:label="Layer 1"
     inkscape:groupmode="layer"
     id="layer1"
     transform="translate(-38.194855,-26.441245)">
    <rect
       style="fill:#fff6d5;stroke:#554400;stroke-width:0.154752;stroke-miterlimit:4;stroke-dasharray:none"
       id="rect846"
       width="53.515564"
       height="26.263533"
       x="48.491867"
       y="78.639725"
       transform="matrix(0.99854522,-0.05392065,0.07353376,0.99729273,0,0)" />
    <path
       style="fill:none;stroke:#806600;stroke-width:0.204704px;stroke-linecap:butt;stroke-linejoin:miter;stroke-opacity:1"
       d="M 56.135255,102.00454 107.64171,72.926517"
       id="path903" />
    <path
       style="fill:none;stroke:#806600;stroke-width:0.204704px;stroke-linecap:butt;stroke-linejoin:miter;stroke-opacity:1"
       d="M 109.57297,99.118947 54.203999,75.812111"
       id="path905" />
    <path
       style="fill:#aa8800;stroke:#554400;stroke-width:0.0555293;stroke-miterlimit:4;stroke-dasharray:none;stroke-opacity:1"
       d="M 68.38686,81.630501 54.896736,75.951429 67.940253,75.229223 c 7.173936,-0.397216 18.892412,-1.030005 26.041058,-1.406197 l 12.997539,-0.68399 -11.699121,6.605059 c -6.434517,3.632781 -12.082438,6.82115 -12.550935,7.085266 l -0.851811,0.480212 z"
       id="path2462" />
    <g
       id="g5512"
       transform="rotate(17.255359,162.90984,-230.64186)">
      <g
         id="g5654"
         transform="rotate(-14.004488,156.14049,71.087072)">
        <path
           id="path4152-3"
           style="fill:none;stroke:#000000;stroke-width:0.665;stroke-linecap:butt;stroke-linejoin:miter;stroke-miterlimit:4;stroke-dasharray:none;stroke-opacity:1"
           d="m 161.03495,87.471388 c 0,0 3.35182,-1.044182 2.49756,-3.098903 -0.85427,-2.054719 -0.97218,-2.8185 -1.90057,-2.667798 -0.92839,0.150701 -3.35812,0.668917 -3.35812,0.668917 m 4.50987,13.70489 -1.74874,-8.607106 c 0,0 -3.4961,0.31988 -3.49438,-1.905347 0.002,-2.225229 -0.18202,-2.975893 0.73325,-3.192437 M 138.79697,57.454129 c 0,0 -1.5599,7.978015 -0.87787,11.401975 0.68203,3.42396 -1.13594,4.607586 4.41546,11.169074 5.55141,6.561495 6.02836,2.769752 7.13117,6.931397 1.10279,4.161637 -2.19531,12.34898 4.04555,12.748827 6.24087,0.399858 9.61343,-1.914934 9.27241,-3.626908 M 142.1058,52.41372 c -3.62362,3.460119 -3.14613,-1.016304 -4.6199,-2.228815 -1.47377,-1.212509 -4.97695,-0.240865 -5.71569,1.549278 -0.73875,1.790146 2.82508,24.492884 4.00923,25.626169 1.18416,1.133284 1.68947,-5.2655 1.74326,-6.713837 0.0754,-2.030594 -0.11247,-7.781807 1.27427,-13.192386 m 31.34238,-6.243204 c 0,0 4.49788,6.771347 5.17991,10.195308 0.68203,3.423959 2.81478,3.820624 0.20136,12.008496 -2.61342,8.187872 -4.5069,4.86831 -3.93086,9.134878 0.57604,4.266567 6.75966,10.565207 1.14837,13.325933 -5.6113,2.760729 -9.48174,1.888702 -9.95444,0.202954 M 142.1058,52.41372 c 7.68166,-6.801401 18.37298,-6.398101 23.04588,-4.590593 4.67289,1.807509 2.51656,-2.144275 3.41322,-3.828961 0.89668,-1.684687 4.50479,-2.129566 5.87309,-0.759133 1.36832,1.370432 6.77581,23.705926 6.1163,25.206459 -0.65952,1.500531 -3.57817,-4.216229 -4.18283,-5.5334 -0.84776,-1.846703 -2.87797,-7.23094 -6.23211,-11.697167"
           sodipodi:nodetypes="csscccsccssssccssssccssssccsssssc" />
        <ellipse
           style="fill:#241f1c;stroke:none;stroke-width:0.2;stroke-miterlimit:4;stroke-dasharray:none;stroke-opacity:1"
           id="path5291"
           cx="133.02251"
           cy="94.363464"
           rx="1.9470303"
           ry="2.0813081"
           transform="rotate(-11.265497)" />
        <ellipse
           style="fill:#000000;stroke:#806600;stroke-width:10;stroke-miterlimit:4;stroke-dasharray:none;stroke-opacity:1"
           id="path5291-4"
           cx="148.66589"
           cy="94.363464"
           rx="1.9470303"
           ry="2.0813081"
           transform="rotate(-11.265497)" />
      </g>
      <path
         style="fill:#554400;stroke:#806600;stroke-width:0.637781;stroke-miterlimit:4;stroke-dasharray:none;stroke-opacity:1"
         d="m 613.33714,323.66472 c -1.18425,-0.42186 -2.08712,-1.06107 -2.74679,-1.94462 -0.68937,-0.92334 -2.76587,-9.165 -2.67199,-10.60519 0.0736,-1.12905 0.10934,-1.17312 1.5978,-1.97027 3.23699,-1.73357 11.42775,-5.46501 11.99606,-5.46501 0.3287,0 0.94299,0.32829 1.36509,0.72954 0.76676,0.72889 5.46826,7.08714 6.01539,8.13515 0.5137,0.98396 0.34531,2.91326 -0.38157,4.37191 -0.74656,1.49816 -3.423,4.31372 -5.25249,5.52552 -2.0644,1.36741 -7.60046,2.04981 -9.9215,1.22297 z"
         id="path5730"
         transform="scale(0.26458333)" />
      <path
         style="fill:#ffd42a;fill-opacity:1;stroke:#806600;stroke-width:0.901958;stroke-miterlimit:4;stroke-dasharray:none;stroke-opacity:1"
         d="m 599.46088,374.52181 c -6.45127,-1.73992 -9.45458,-7.42117 -12.89371,-24.39057 -2.56971,-12.67949 -3.5687,-15.69189 -6.85648,-20.67553 -2.4263,-3.67778 -4.05753,-4.83316 -7.61215,-5.39155 -6.4376,-1.01128 -11.8496,-3.3752 -19.66352,-8.58888 -13.47791,-8.99285 -22.08002,-17.4092 -24.90881,-24.37091 -0.47031,-1.15743 -1.44286,-4.1088 -2.16122,-6.55858 -0.71835,-2.44979 -1.84059,-5.74606 -2.49385,-7.32506 -3.57071,-8.63073 -5.61281,-19.94629 -7.20493,-39.92337 l -0.23595,-2.96061 h -1.39809 -1.3981 v 2.81878 c 0,9.76973 2.0612,23.95607 5.92555,40.78293 1.71094,7.45011 2.40675,11.20493 3.23205,17.44125 0.57036,4.30988 0.76499,11.89295 0.33352,12.99474 -0.40508,1.03437 -2.1754,-1.76625 -6.40621,-10.13447 -12.41436,-24.55468 -31.07613,-71.15152 -31.07613,-77.59442 0,-1.93624 1.01128,-3.74876 3.28225,-5.88275 3.4101,-3.20441 7.02486,-4.82866 10.74618,-4.82866 3.5228,0 4.26904,0.54468 8.5505,6.24101 2.65852,3.53708 3.72886,4.46356 5.65966,4.89903 3.06368,0.69097 5.63433,-1.09243 9.51409,-6.60046 3.70889,-5.26545 6.47977,-8.50434 11.09885,-12.97345 13.19646,-12.76801 30.81611,-21.25671 50.73262,-24.44168 4.03887,-0.64588 11.44136,-0.8192 20.63455,-0.48315 4.0415,0.14774 4.6516,0.0873 6.1601,-0.60989 0.92088,-0.42563 1.96167,-1.21242 2.31287,-1.74842 0.98103,-1.49723 1.04197,-4.55678 0.15935,-7.99952 -1.82158,-7.10518 -1.71839,-8.37696 0.90742,-11.18417 2.78919,-2.98186 7.69221,-5.02922 12.044,-5.02922 2.53589,0 3.73467,0.43357 5.25581,1.90089 5.57839,5.38105 30.98544,52.23432 40.92039,75.46153 2.00649,4.69102 3.43675,8.74197 3.17791,9.00081 -0.35693,0.35694 -4.08708,-2.58099 -7.50575,-5.91164 -4.99682,-4.86818 -8.55378,-8.97077 -14.99214,-17.29192 -7.21746,-9.32806 -11.27531,-14.11159 -16.86012,-19.87525 -4.94797,-5.10643 -11.71103,-11.34572 -12.29815,-11.34572 -0.34268,0 -1.66497,1.44821 -1.68552,1.84603 -0.007,0.12713 3.34072,3.59912 7.43843,7.71553 12.52813,12.58533 15.9279,16.85361 22.11138,27.76007 0.72736,1.28293 2.51167,4.06383 3.96512,6.17978 4.21844,6.14126 5.7157,11.2474 6.16605,21.02818 0.2513,5.45781 -0.29723,15.91198 -1.12378,21.41781 -0.98165,6.53888 -1.96223,9.7439 -4.55248,14.87971 -2.91074,5.77125 -3.02557,6.7792 -1.36345,11.96801 1.65011,5.15129 4.23893,9.09073 13.13244,19.98374 3.93835,4.8238 7.43347,10.05071 8.66808,12.96298 0.80867,1.90757 0.97191,2.82643 0.98032,5.5184 0.009,2.92416 -0.0913,3.41286 -1.06157,5.16479 -1.98252,3.57971 -9.57701,9.74931 -16.33313,13.26869 -6.76587,3.52446 -13.37773,5.19026 -17.33789,4.36814 -3.78027,-0.78478 -3.57116,-0.4766 -11.18837,-16.48899 l -6.89839,-14.50135 2.762,-2.72878 c 2.15542,-2.12951 2.93226,-3.18387 3.53728,-4.80094 1.46902,-3.9263 1.09858,-5.2102 -3.17243,-10.99541 -5.11375,-6.92674 -5.44285,-6.97635 -15.12417,-2.2799 -7.53605,3.65577 -8.04201,4.10455 -7.99165,7.08848 0.0462,2.73603 2.15944,10.52753 3.30798,12.1964 1.51061,2.19496 3.81456,3.20325 7.3774,3.22859 1.60646,0.0114 3.74065,-0.11165 4.74264,-0.27349 l 1.8218,-0.29426 6.90479,14.45568 c 3.79763,7.95063 6.99448,14.90412 7.10409,15.45219 0.2881,1.44051 -1.27386,4.39101 -3.55008,6.70599 -4.97797,5.06274 -14.61929,9.52954 -24.81639,11.49738 -4.34444,0.83838 -6.14124,0.89236 -8.50286,0.25543 z M 562.69837,265.96504 c 3.42214,-1.55465 5.06979,-5.38134 3.96029,-9.19787 -1.0523,-3.6198 -3.97646,-5.90702 -7.55199,-5.90702 -4.52997,0 -7.78051,3.7092 -7.24118,8.26292 0.65997,5.57246 6.08502,8.99888 10.83288,6.84197 z m 58.73688,-6.99564 c 4.00664,-1.34414 7.49868,-3.57917 10.50794,-6.72546 2.95066,-3.08502 4.88742,-6.29076 6.22962,-10.31129 0.81077,-2.42862 0.92092,-3.3615 0.93926,-7.95476 0.0229,-5.73498 -0.31784,-7.39312 -2.47047,-12.02187 -3.14009,-6.75208 -9.15099,-11.87217 -16.70785,-14.23179 -3.57241,-1.11548 -11.16543,-1.1975 -14.53391,-0.15699 -9.34618,2.88698 -16.15435,10.10867 -18.32079,19.43358 -0.72287,3.11143 -0.73013,9.0071 -0.0149,12.09118 2.38297,10.27518 10.329,18.25606 20.48885,20.57873 3.48936,0.79771 10.46422,0.44534 13.88224,-0.70133 z"
         id="path5904"
         transform="scale(0.26458333)" />
    </g>
    <text
       xml:space="preserve"
       style="font-style:normal;font-weight:normal;font-size:15.036px;line-height:1.25;font-family:sans-serif;fill:#000000;fill-opacity:1;stroke:none;stroke-width:0.375902"
       x="70.259148"
       y="86.835152"
       id="text7449"
       transform="matrix(1.1020514,-0.06627237,0.08092292,0.90253236,0,0)"><tspan
         sodipodi:role="line"
         id="tspan7447"
         style="font-style:normal;font-variant:normal;font-weight:normal;font-stretch:normal;font-family:Playbill;-inkscape-font-specification:Playbill;stroke-width:0.375902"
         x="70.259148"
         y="86.835152">dgpost</tspan></text>
  </g>
</svg>
